<?xml version="1.0" encoding="UTF-8"?>
<svg id="Layer_2" data-name="Layer 2" xmlns="http://www.w3.org/2000/svg" width="158.32701mm" height="26.81111mm" viewBox="0 0 448.80099 76">
  <g id="Layer_1-2" data-name="Layer 1">
    <g id="Layer_1-3" data-name="Layer_1">
      <g id="_1692333658304" data-name=" 1692333658304">
        <path d="m38,0C17,0,0,17,0,38s17,38,38,38,38-17,38-38S59,0,38,0Zm0,2.4c19.7,0,35.7,16,35.7,35.6s-16,35.7-35.7,35.7S2.4,57.7,2.4,38,18.3,2.4,38,2.4Zm0,3.1c18,0,32.5,14.6,32.5,32.5,0,18-14.6,32.5-32.5,32.5S5.5,56,5.5,38C5.5,20.1,20.1,5.5,38,5.5Zm-14.4,18.1h8.4l6-6,6,6h8.4v8.4l6,6-6,6v8.4h-8.4l-6,6-6-6h-8.4v-8.4l-6-6,6-6s0-8.4,0-8.4Zm14.2,10.4c1.4,1.5,1.7-.4,1.8-.7,0,0,1.3-1.1.1-1.6l-.6-.2s-.1,0-.1-.1c.4-1.5-1.3-2-1.5-.6-.1.6.1.3-.2.7-.5.6-.4.4-.4,1.3-.2.1-1.6.6-.8,1.6.7.9,1.5-.3,1.7-.4Zm-1.3-1.3c.1-1-.1-.7.4-1.3.4-.4.2-.9.6-1.3.9-.8,2,0,1.9,1.3.5.1.9.2,1,.8.3.9-.2,1-.5,1.3-.2.2-.6,2.2-2.1.9,0,0-1.1,1.2-1.9.2-.7-.8-.1-1.6.6-1.9Zm1.4,9.2c1.5-1.5,1.7.4,1.9.7,0,0,1.2,1.1.1,1.6l-.6.2s-.1,0-.1.1c.4,1.5-1.3,2-1.5.6-.1-.6.1-.3-.2-.7-.5-.6-.4-.4-.4-1.3-.2-.1-1.6-.6-.8-1.6.6-.9,1.4.3,1.6.4Zm-1.3,1.3c.1,1-.1.6.5,1.3.3.5.1.9.6,1.3.9.8,2,.1,1.9-1.3.6-.1.9-.2,1-.8.2-.9-.2-1-.5-1.3-.2-.2-.6-2.2-2.1-.9,0,0-1-1.2-1.9-.2-.8.7-.2,1.6.5,1.9Zm.3-1.5c.2,0,.4.2.4.4s-.2.4-.4.4-.4-.2-.4-.4.2-.4.4-.4Zm1.4,2.8c.2,0,.4.2.4.4s-.2.4-.4.4-.4-.2-.4-.4.2-.4.4-.4Zm-.6-1.4c.2,0,.4.2.4.4s-.2.4-.4.4-.4-.2-.4-.4c0-.2.2-.4.4-.4Zm1.5-.1c.2,0,.4.2.4.4s-.2.4-.4.4-.4-.2-.4-.4c0-.2.2-.4.4-.4Zm-.5-1c.2,0,.4.2.4.4s-.2.4-.4.4-.4-.2-.4-.4c0-.2.1-.4.4-.4Zm-1.9-7.8c.2,0,.4-.2.4-.4s-.2-.4-.4-.4-.4.2-.4.4.2.4.4.4Zm1.4-2.8c.2,0,.4-.2.4-.4s-.2-.4-.4-.4-.4.2-.4.4c0,.2.2.4.4.4Zm-.6,1.4c.2,0,.4-.2.4-.4s-.2-.4-.4-.4-.4.2-.4.4.2.4.4.4Zm1.5.1c.2,0,.4-.2.4-.4s-.2-.4-.4-.4-.4.2-.4.4.2.4.4.4Zm-.5,1c.2,0,.4-.2.4-.4s-.2-.4-.4-.4-.4.2-.4.4c-.1.3.1.4.4.4Zm3,6.3l.2-.2c.5.2.4.4.6.9-.8-.7-.6-.3-.8-.7Zm-.3,0c-.2-.1-.6-.2.1-.7.4.6-.1.5-.1.7Zm.1-1.8c1.6.5,1.7,1,1.2,2.1-.3-.2-.2-.2-.4-.5-.5-.8-.8-.4-.8-1.6Zm-1.5,1.1c0-1-.1-1.1.3-1.9,1,.1,1,.9.8,1.8-.2-.1,0-.1-.4-.3-.4.1-.3.2-.7.4Zm6-.7c-.5.2-.6,0-1-.2.5,0,.7,0,1,.2Zm-1.3.2l-.8.1c-.2-.3-.3-.6-.4-1,.6.1,1.2.3,1.2.9Zm-1,.4c-.6-.5-2.2-1.3-2.4-1.6l1.8.1.6,1.5Zm.4-1.4c.1-.2,0-.2.6-.4.2-.1.4-.1.7-.1.4.8.3.1.7,1l-2-.5Zm-5.3.9c.3-.8.6-1,1.2-1.4,0,.4-.2.5-.3,1-.1.4.1.6.1,1.1-.5,0-.2,0-.6.2,0-.1-.4-.9-.4-.9Zm5.1-1.8l1.2.1c-.8.3-1.4.7-2.1.4l.9-.5Zm-3.3.1c-.9-.1-.7-.8-.5-1.4.2.3.4.8.5,1.4Zm.6.2c.3-1.1,1.1-.4,2.7-1.2-.4.6-.2.7-1,1-.7.3-.8.4-1.7.2Zm-.7-1.9c.6.3.6,0,1.1-.3l.2.9c-.8.8-.5.8-1,1,0,.1-.3-1.6-.3-1.6Zm2.7-.3c.5.4.5-.1.6.4.1.4,0,.3-.3.5s-1,.3-1.5.3l1.2-1.2Zm-1.3-.5c.7.2.6,0,1.2-.2-.1.5-.7,1.1-1.1,1.3.09999-.1-.1-1.1-.1-1.1Zm-.3-.3c-.2.5-.3.7-.7.9l-.7-.2c-.3.9-.7.7-.6,1.9-.3,0-.3-.1-.6-.1-.2,0-.1-.1-.3,0-.2,0-.1,0-.3.1.2.6.2.3.9.6-.8,1.3-1,.9-.4,2.5.6,0,1.2-.2,1.5-.6l.7,1.3c.7-.1.7,0,1.2.6.5-.2.1-.2.7-.4-.1-.9.2-.8.3-1.5l.8.3c0-.1.1-.2.1-.2.1.2-.2-.2.6-.3l1.9-.5c-.2-.7-.8-1.1-1.4-2l-1.2-.2c0-.2,0,0,.1-.2.1-.1.2-.2.2-.6l-.6-1.3c-.1-.8,0-.8-.9-.3-.5.4-.6.3-1.3.2Zm-6.8,5.8l-.1-.2c-.5.2-.4.4-.6.9.6-.7.5-.3.7-.7Zm.3,0c.2-.1.6-.2-.1-.7-.4.6.1.5.1.7Zm-.2-1.8c-1.6.5-1.7,1-1.2,2.1.3-.2.2-.2.4-.5.6-.8.8-.4.8-1.6Zm1.6,1.1c.1-1,.1-1.1-.3-1.9-1,.1-1.1.9-.8,1.8.2-.1,0-.1.4-.3.3.1.3.2.7.4Zm-6.1-.7c.5.2.7,0,1-.2-.5,0-.6,0-1,.2Zm1.3.2l.8.1c.2-.3.3-.6.4-1-.5.1-1.2.3-1.2.9Zm1.1.4c.6-.5,2.2-1.3,2.4-1.6l-1.8.1c-.1,0-.6,1.5-.6,1.5Zm-.4-1.4c-.1-.2,0-.2-.6-.4-.3-.1-.4-.1-.7-.1-.4.8-.4.1-.7,1,0,0,2-.5,2-.5Zm5.2.9c-.3-.8-.6-1-1.1-1.4,0,.4.2.5.3,1,.1.4-.1.6,0,1.1.5,0,.2,0,.6.2-.1-.1.2-.9.2-.9Zm-5-1.8l-1.2.1c.8.3,1.4.7,2.1.4l-.9-.5Zm3.3.1c.9-.1.7-.8.5-1.4-.3.3-.4.8-.5,1.4Zm-.7.2c-.3-1.1-1.1-.4-2.7-1.2.4.6.2.7.9,1,.9.3,1,.4,1.8.2Zm.8-1.9c-.6.3-.6,0-1.2-.3l-.2.9c.8.8.5.8,1,1,.1.1.4-1.6.4-1.6Zm-2.7-.3c-.5.4-.5-.1-.6.4-.1.4.1.3.3.5.3.2,1,.3,1.4.3l-1.1-1.2Zm1.2-.5c-.7.2-.6,0-1.2-.2.2.5.7,1.1,1.1,1.3,0-.1.1-1.1.1-1.1Zm.3-.3c.2.5.4.7.7.9l.7-.2c.3.9.7.7.5,1.9.3,0,.4-.1.6-.1s.1-.1.3,0c.3,0,.1,0,.3.1-.2.6-.2.3-.9.6.8,1.3,1.1.9.4,2.5-.6,0-1.1-.2-1.5-.6l-.7,1.3c-.7-.1-.7,0-1.1.6-.5-.2-.1-.2-.7-.4,0-.9-.2-.8-.3-1.5l-.8.3c0-.1-.1-.2-.1-.2-.1.2.2-.2-.6-.3l-1.9-.5c.1-.7.8-1.1,1.4-2l1.2-.2c0-.2,0,0-.1-.2,0-.1-.1-.2-.2-.6l.6-1.3c.1-.8,0-.8.9-.3.59999.4.7.3,1.3.2Zm3.3-5.9c5.2,0,9.5,4.2,9.5,9.5s-4.2,9.5-9.5,9.5-9.5-4.2-9.5-9.5,4.3-9.5,9.5-9.5Zm0,.5c5,0,9,4,9,9s-4,9-9,9-9-4-9-9,4-9,9-9Zm-13.7,9.3l-.1.2c-.2.2-.1.1-.2.2-.3.2-.3.1-.5.5-.4.7.7,1.7,1.4.8.3-.4-.1-.5.2-1.2.2.4.6,2.2,1.8.7-.1-1.3-.7-.7-1.4-1.3,0,0,2.3.3,1.7-1.1-.7-1.4-1.6.2-1.9.5,0-.5-.1-.1.1-.6.2-.3.2-.1.2-.5,0-1-1.6-1.1-1.6-.1,0,.6.6.8.6,1.3-.7-.3-.3-.6-1.1-.7-1.3-.2-1.6,1.1-.5,1.6.5.2.7-.2,1.3-.3Zm3.1-11l-.2.1c-.2,0-.1,0-.3.1-.4,0-.3-.1-.7.1-.7.4-.3,1.8.7,1.5.5-.2.2-.5.9-.9-.1.4-.8,2.1,1.1,1.6.7-1.1-.2-1-.4-1.9,0,0,1.7,1.6,2,.1.2-1.5-1.4-.7-1.9-.7.3-.4,0-.2.4-.4.3-.2.2,0,.5-.3.6-.9-.7-1.8-1.3-1-.4.5,0,1-.2,1.4-.4-.6.1-.7-.5-1.2-1-.9-1.9,0-1.3,1,.3.5.7.3,1.2.5Zm10.9-3.1l.2-.1c.2-.1.1,0,.3-.2.3-.2.2-.3.6-.4.8-.2,1.4,1.2.5,1.6-.5.2-.5-.2-1.2-.1.3.2,2,1.1.2,1.9-1.3-.5-.5-.9-.9-1.7,0,0-.3,2.4-1.4,1.3-1.2-1,.6-1.5,1-1.7-.5-.2-.1-.1-.6,0-.4,0-.2.2-.6.1-1-.3-.6-1.8.3-1.6.6.2.6.7,1.1.9-.1-.7-.5-.5-.4-1.3.2-1.3,1.5-1.2,1.6,0,0,.7-.39999.8-.69999,1.3Zm10.2,3.1l.2.1c.2,0,.1,0,.3.1.4,0,.3-.1.7.1.7.4.3,1.8-.7,1.5-.5-.2-.2-.5-.9-.9.1.4.8,2.1-1.1,1.6-.6-1.1.2-1,.4-1.9,0,0-1.7,1.6-2,.1-.2-1.5,1.4-.7,1.9-.7-.3-.4,0-.2-.4-.4-.3-.2-.2,0-.5-.3-.6-.9.7-1.8,1.3-1,.4.5,0,1,.2,1.4.4-.6-.1-.7.5-1.2,1-.9,1.9,0,1.3,1-.3.5-.7.3-1.2.5Zm3.1,11l.1.2.2.2c.3.2.3.1.5.5.4.7-.7,1.7-1.4.8-.3-.4.1-.5-.2-1.2-.2.4-.6,2.2-1.8.7.1-1.3.8-.7,1.4-1.3,0,0-2.4.3-1.7-1.1.7-1.4,1.6.2,1.9.5,0-.5.1-.1-.1-.6-.1-.3-.2-.1-.2-.5,0-1,1.6-1.1,1.6-.1,0,.6-.5.8-.6,1.3.7-.3.3-.6,1.1-.7,1.3-.2,1.6,1.1.5,1.6-.5.2-.7-.2-1.3-.3Zm-3.1,9.5l.2-.1h.3c.4,0,.3.1.7-.1.7-.4.3-1.8-.7-1.5-.5.2-.2.5-.9.9.1-.4.8-2.1-1.1-1.6-.6,1.2.2,1,.4,1.9,0,0-1.7-1.6-2-.1-.2,1.5,1.4.8,1.9.7-.3.4,0,.2-.4.4-.3.2-.2,0-.5.3-.6.8.7,1.8,1.3,1,.4-.5,0-.9.2-1.4.4.6-.1.7.5,1.3,1,.9,1.9-.1,1.3-1-.3-.60001-.7-.40001-1.2-.70001Zm-10.2,3.5l.2.1c.2.1.1,0,.3.2.3.2.2.3.6.4.8.2,1.4-1.1.5-1.5-.5-.2-.5.2-1.2.1.3-.2,2-1.1.2-2-1.3.5-.5.9-.9,1.7,0,0-.3-2.4-1.4-1.3-1.2,1,.6,1.5,1,1.7-.5.2-.1.1-.6.1-.4-.1-.2-.2-.6-.1-1,.2-.6,1.8.3,1.6.6-.2.6-.7,1.1-.9-.1.7-.5.5-.4,1.3.2,1.3,1.5,1.2,1.6.1,0-.89999-.39999-1-.69999-1.5Zm-10.9-3.5l-.2-.1h-.3c-.4,0-.3.1-.7-.1-.7-.4-.3-1.8.7-1.5.5.2.2.5.9.9-.1-.4-.8-2.1,1.1-1.6.7,1.2-.2,1-.4,1.9,0,0,1.7-1.6,2-.1.2,1.5-1.4.8-1.9.7.3.4,0,.2.4.4.3.2.2,0,.5.3.6.8-.7,1.8-1.3,1-.4-.5,0-.9-.2-1.4-.4.6.1.7-.5,1.3-1,.9-1.9-.1-1.3-1,.3-.60001.7-.40001,1.2-.70001Zm-5.7,9.9l.9.5c-.1.3-.2.6-.1.8s.2.4.5.6c.3.2.5.3.7.3s.4-.1.5-.2c.1-.1.1-.2.1-.3s-.1-.2-.2-.4c-.1-.1-.2-.3-.5-.6-.4-.4-.6-.8-.6-1-.1-.4,0-.8.2-1.1.2-.2.3-.4.6-.5.2-.1.5-.1.8-.1.3.1.6.2.9.4.5.4.8.7.9,1.1.1.4,0,.8-.2,1.2l-.8-.6c.1-.2.2-.4.1-.6-.1-.2-.2-.3-.4-.5-.2-.2-.5-.3-.7-.2-.1,0-.2,0-.3.2-.1.1-.1.2-.1.3.1.2.2.4.6.8.3.4.6.7.7.9s.2.5.2.7-.1.5-.3.7c-.2.2-.4.4-.7.5-.3.1-.6.2-.9.1-.3-.1-.6-.2-1-.5-.5-.4-.8-.8-.9-1.2-.3-.3-.2-.8,0-1.3Zm-3.7-34.7c3.9-2.6,3.8-.4,7.6-4.2-1.9-1-4.1.5-5,1.2.1-.5,1.1-2.6.5-3.9-3.4.8-2.9,4.3-3.1,6.9Zm20-15.2c16.7,0,30.2,13.5,30.2,30.2s-13.5,30.2-30.2,30.2S7.8,54.7,7.8,38,21.3,7.8,38,7.8Zm-2.2,7.7l-1.1.3-.7-1-2,.5-.2,1.2-1,.2.8-5.4,1.1-.2,3.1,4.4Zm20.8,41c.8-4.6-1.1-3.7.9-8.6,1.7,1.4,1.2,4,.9,5,.5-.3,2-2,3.4-2,.5,3.5-2.90001,4.4-5.2,5.6Zm2.9-6.2c.4-4.6-1.4-3.5.1-8.6,1.8,1.2,1.6,3.8,1.3,4.9.4-.3,1.8-2.2,3.2-2.3.9,3.4-2.4,4.6-4.6,6Zm3.4-6.3c-1.4-4.5-2.7-2.8-3.1-8,2.2.4,2.9,3,3.1,4.1.2-.5.8-2.7,2.1-3.3,2,2.7-.6,5.1-2.1,7.2Zm0-7.3c-2.3-4.1-3.1-2.2-4.7-7.2,2.2,0,3.4,2.3,3.9,3.4.2-.5.3-2.8,1.4-3.7,2.5,2.3.5,5.2-.6,7.5Zm-1.4-7.4c-3.2-3.4-3.6-1.3-6.4-5.8,2.1-.6,3.9,1.4,4.6,2.3,0-.5-.5-2.8.4-3.9,3.1,1.5,1.8,4.8,1.4,7.4Zm-3.4-6.3c-3.9-2.6-3.8-.4-7.6-4.2,1.9-1,4.1.5,5,1.2-.1-.5-1-2.6-.5-3.9,3.5.8,2.9,4.3,3.1,6.9Zm-14.3-6.6l.2-.9.9.3-.3.9c.09999,0-.8-.3-.8-.3Zm-7.4-.7l-.1-1,1-.1.1,1-1,.1Zm-2.9-1.7l-1.1-1.7-.2,2c-.1,0,1.3-.3,1.3-.3Zm4.5-5.3c16.2,0,29.3,13.1,29.3,29.3s-13.09999,29.3-29.3,29.3c-16.1,0-29.2-13.1-29.2-29.3,0-16.1,13.1-29.3,29.2-29.3Zm-18.5,47.8c-.8-4.6,1.1-3.7-.9-8.6-1.7,1.4-1.2,4-.9,5-.4-.3-2-2-3.4-2-.5,3.5,2.9,4.4,5.2,5.6Zm-2.9-6.2c-.4-4.6,1.4-3.5-.1-8.6-1.8,1.2-1.6,3.8-1.3,4.9-.4-.3-1.8-2.2-3.2-2.3-.9,3.4,2.4,4.6,4.6,6Zm-3.4-6.3c1.4-4.5,2.7-2.8,3.1-8-2.1.4-2.9,3-3.1,4.1-.2-.5-.9-2.7-2.1-3.3-2,2.7.6,5.1,2.1,7.2Zm0-7.3c2.3-4.1,3.2-2.2,4.7-7.2-2.2,0-3.4,2.3-3.9,3.4-.2-.5-.3-2.8-1.4-3.7-2.5,2.3-.5,5.2.6,7.5Zm1.4-7.4c3.2-3.4,3.6-1.3,6.4-5.8-2.1-.6-3.9,1.4-4.6,2.3,0-.5.4-2.8-.5-3.9-3,1.5-1.7,4.8-1.3,7.4Zm34.3,28.2l1.5-1c.3-.2.6-.4.8-.5.3-.1.6-.1.9-.1.3.1.6.2.9.4s.6.5.8.9c.2.3.4.6.5.9.1.4.2.7.1,1,0,.2-.2.5-.3.7-.2.2-.4.4-.7.6l-1.5,1.1-3-4Zm1.3.1l1.9,2.7.6-.4c.2-.2.4-.3.5-.4.1-.1.2-.2.2-.4,0-.1,0-.3-.1-.5s-.2-.5-.5-.8c-.2-.3-.4-.5-.6-.6-.2-.1-.3-.2-.5-.2s-.3,0-.5.1c-.1.1-.3.2-.7.4,0-.2-.3.1-.3.1Zm-5.5,1.6l.9-.4,1.1,2.4c.2.4.3.6.4.7.1.2.3.3.5.3s.4,0,.7-.1c.2-.1.4-.3.5-.4.1-.2.1-.3,0-.5,0-.2-.1-.4-.3-.8l-1.1-2.4.9-.4,1.1,2.4c.2.6.4.9.5,1.2s.1.5,0,.7c0,.2-.2.4-.3.6-.2.2-.5.4-.8.6-.4.2-.8.3-1,.3-.3,0-.5,0-.7-.2-.2-.1-.4-.2-.5-.4-.2-.2-.4-.6-.6-1.1l-1.3-2.5h0Zm-3.2,5.7l-.9-4.9,2.1-.4c.5-.1.9-.1,1.2-.1.2.1.5.2.6.4.2.2.3.5.4.7.1.4,0,.7-.2,1s-.5.5-.9.6c.2.1.4.2.6.3.2.1.4.4.7.7l.8.9-1.2.2-.9-.9c-.3-.3-.5-.6-.6-.6-.1-.1-.2-.1-.3-.1h-.7l.4,2c-.2,0-1.1.2-1.1.2Zm.5-3l.7-.1c.5-.1.8-.2.9-.2l.2-.2c0-.1.1-.2,0-.4,0-.2-.1-.3-.2-.4s-.2-.1-.4-.1c-.1,0-.3,0-.7.1l-.8.2c0-.1.3,1.1.3,1.1Zm-6,3.2l.1-5h1v1.9l2,.1v-2h1l-.1,5h-1l.1-2.2h-2l-.1,2.2h-1Zm-5.4-3.5c.1-.5.3-.9.5-1.2l.6-.6c.2-.2.5-.2.7-.3.3-.1.7,0,1.1.1.7.2,1.2.5,1.6,1.1.3.5.4,1.2.2,2s-.5,1.3-1.1,1.7c-.5.3-1.1.4-1.8.3-.7-.2-1.3-.5-1.6-1.1-.3-.6-.3-1.3-.2-2Zm1,.2c-.2.6-.1,1,.1,1.3.2.3.5.6.9.6.4.1.7,0,1.1-.2.3-.2.5-.6.6-1.2.1-.6.1-1-.1-1.3-.2-.3-.5-.6-.9-.6-.4-.1-.8,0-1.1.2-.2.2-.4.6-.6,1.2Zm-6.3.2l2-4.5.9.4-.8,1.8,1.8.8.8-1.8.9.4-2,4.5-.9-.4.9-2-1.8-.8-.9,2-.9-.4Zm13.5-49.1c.1-.5.3-.9.6-1.2.2-.2.4-.4.6-.5.2-.2.5-.2.7-.3.3-.1.7,0,1.1.1.7.2,1.2.6,1.6,1.1.3.6.3,1.2.2,2-.2.8-.6,1.3-1.1,1.6-.6.3-1.2.4-1.9.2s-1.3-.6-1.6-1.1c-.4-.5-.4-1.1-.2-1.9Zm1,.2c-.2.6-.2,1,0,1.3.2.4.5.6.9.7.4.1.8.1,1.1-.2.3-.2.6-.6.7-1.2.2-.6.1-1-.1-1.3-.2-.3-.5-.6-.9-.6-.4-.1-.8-.1-1.1.2-.2.2-.5.6-.6,1.1Z" style="fill: #cb8f65; fill-rule: evenodd;"/>
        <path d="m114.5,57.6c-3.3,0-6.4-.3-9.2-.9-2.8-.6-5.3-1.3-7.5-2.1-2.2-.9-4.2-1.8-6.1-2.7l4.6-9.3c3.5,1.9,6.9,3.2,10.3,4.1,3.4.9,6.4,1.3,9,1.3.7,0,1.6,0,2.5-.1s1.8-.3,2.5-.6,1.1-.9,1.1-1.8c0-.4-.2-.7-.4-1-.2-.3-.6-.5-1.2-.7s-1.2-.3-2-.5c-.8-.1-1.8-.2-2.9-.3s-2.4-.2-3.9-.3c-2.6-.2-5-.6-7.1-1.2-2.1-.6-3.9-1.4-5.5-2.4-1.5-.9-2.7-2.1-3.5-3.5-.9-1.4-1.3-3-1.3-4.7,0-2.1.5-4,1.6-5.6s2.5-3,4.4-4.1,4-1.9,6.5-2.4c2.4-.6,5-.9,7.8-.9s5.4.2,7.7.7c2.3.5,4.2,1.1,6,1.8,1.7.7,3.10001,1.4,4.3,2l-4.8,8c-1.2-.6-2.6-1.1-4.2-1.5s-3.2-.7-4.8-.9c-1.7-.2-3.2-.4-4.6-.4s-2.6.1-3.7.2-2,.4-2.6.7c-.6.4-.9.9-.9,1.5s.3,1,1,1.4c.7.3,1.6.6,2.6.7s2.1.2,3.1.3c1.1.1,2,.1,2.7.2,2.2.2,4.3.4,6.5.7,2.1.3,4.1.8,5.9,1.6,1.7.8,3.10001,1.9,4.2,3.4,1.10001,1.5,1.60001,3.5,1.60001,6.1,0,2.8-.89999,5.2-2.60001,7.2-1.7,2-4.10001,3.5-7.1,4.5-3.1.9-6.4,1.5-10,1.5Zm290.10001-.6V19h21.10001c15.29999,0,23.10001,9.5,23.10001,19,.10001,9.5-7.60001,19-23.10001,19h-21.10001Zm11.69998-10h9.10001c4.5,0,8.89999-1.7,10.70001-5.9,2-4.7-.79999-9.5-5.60001-11.3-1.39999-.6-3.10001-.8-5.10001-.8h-9.10001v18Zm-44,10.3c-4.20001,0-7.79999-.8-10.89999-2.4-3.10001-1.6-5.5-3.8-7.29999-6.6-1.70001-2.8-2.60001-6-2.60001-9.5v-19.8h11.89999v19.6c0,1.7.39999,3.2,1.20001,4.6.70001,1.3,1.79999,2.3,3.10001,3,1.29999.7,2.89999,1.1,4.60001,1.1,1.79999,0,3.39999-.4,4.79999-1.1,1.39999-.7,2.39999-1.7,3.20001-3,.79999-1.3,1.20001-2.8,1.20001-4.6v-19.6h11.60001v19.8c0,3.6-.89999,6.8-2.60001,9.5-1.70001,2.8-4.10001,5-7.20001,6.6-3.20001,1.6-6.80002,2.4-11.00003,2.4h0Zm-68.60001-.3V19h22c3.60001,0,6.60001.5,8.89999,1.4s4.10001,2.4,5.20001,4.2c1.20001,1.9,1.70001,4.1,1.70001,6.8,0,2.6-.60001,4.8-2,6.8-1.29999,2-3.10001,3.5-5.29999,4.6-.20001.1-.5.2-.79999.4l10.39996,13.8h-13.29999l-9.29999-12.4h-6.5v12.4h-11.00003Zm11-20.5h10.29999c.89999,0,1.70001-.1,2.39999-.4.70001-.3,1.29999-.7,1.70001-1.3.5-.6.70001-1.4.70001-2.4,0-.9-.20001-1.7-.70001-2.4-.39999-.6-1-1-1.79999-1.3s-1.60001-.4-2.5-.4h-10.10001v8.2h0Zm-34.39999,20.5v-13.6h-18.5v13.6h-11.7V19h11.7v14.2h18.5v-14.2h11.70001v38h-11.70001Zm-63,.6c-3.7,0-7.10001-.5-10.10001-1.5s-5.7-2.4-7.89999-4.2-3.89999-3.9-5.10001-6.3c-1.2-2.4-1.8-5-1.8-7.9,0-2.8.60001-5.4,1.8-7.8s2.89999-4.5,5.10001-6.3c2.2-1.8,4.8-3.2,7.8-4.2s6.39999-1.5,10-1.5c3.7,0,7,.5,10,1.5s5.60001,2.4,7.8,4.2c2.2,1.8,3.89999,3.9,5.10001,6.3,1.2,2.4,1.8,5,1.8,7.8s-.60001,5.5-1.8,7.9-2.89999,4.5-5.10001,6.3c-2.2,1.8-4.8,3.2-7.8,4.2-2.89999.9-6.2,1.5-9.8,1.5h0Zm-.09999-10.9c1.89999,0,3.60001-.2,5.2-.7,1.60001-.5,2.89999-1.1,4.10001-1.9,1.10001-.8,2-1.8,2.7-2.8.60001-1.1.89999-2.3.89999-3.5,0-1.3-.3-2.4-.89999-3.5-.60001-1.1-1.5-2-2.7-2.8s-2.5-1.5-4.10001-1.9-3.3-.7-5.2-.7-3.60001.2-5.2.7c-1.60001.5-2.89999,1.1-4.10001,1.9-1.2.8-2,1.7-2.7,2.8-.60001,1.1-.89999,2.3-.89999,3.5,0,1.3.3,2.4.89999,3.5.60001,1.1,1.5,2,2.7,2.8s2.5,1.4,4.10001,1.9c1.59999.5,3.29999.7,5.2.7Zm-44.60001,10.3v-13.6h-18.5v13.6h-11.7V19h11.7v14.2h18.5v-14.2h11.8v38h-11.8Z" style="fill: #cb8f65; fill-rule: evenodd;"/>
      </g>
    </g>
  </g>
</svg>