<?xml version="1.0" encoding="UTF-8"?>
<svg id="Layer_2" data-name="Layer 2" xmlns="http://www.w3.org/2000/svg" width="29.98422mm" height="17.63889mm" viewBox="0 0 84.99463 50">
  <g id="Layer_1-2" data-name="Layer 1">
    <g>
      <path d="m8.54199,18.06836c-1.13281,0-2.13867-.16016-3.01953-.48242-.88037-.32227-1.56836-.77148-2.06396-1.3457-.49512-.57324-.74316-1.22949-.74316-1.96875,0-.81836.25537-1.48242.76709-1.99316.51074-.5127,1.15137-.7666,1.92236-.7666.32959,0,.49463.09375.49463.2832,0,.0625-.0625.17969-.18848.35352-.12549.17285-.25146.40527-.37695.69531-.12598.29102-.18896.65625-.18896,1.09766,0,.81738.31445,1.48828.94385,2.0166.62891.52637,1.44678.79004,2.45313.79004.88037,0,1.60742-.23145,2.18213-.69629.57373-.46387.86084-1.12012.86084-1.96973,0-.66016-.15332-1.21484-.45996-1.66211-.30713-.44824-.71191-.83008-1.21484-1.14453-.50342-.31445-1.05762-.60547-1.66309-.87305-.60547-.2666-1.21094-.5459-1.81641-.83789-.60547-.29004-1.15967-.62891-1.66309-1.01367s-.9082-.86133-1.21484-1.42773c-.30664-.56543-.45996-1.25781-.45996-2.07617,0-.76953.18506-1.50586.55469-2.20508s.93555-1.26953,1.69824-1.70898c.7627-.44043,1.72559-.66211,2.88965-.66211,1.03711,0,1.95752.14648,2.75977.4375s1.42725.69629,1.875,1.21484c.44824.51855.67285,1.12402.67285,1.81641,0,.81641-.24023,1.48242-.71973,1.99219-.47949.51172-1.08105.76758-1.80469.76758-.33008,0-.49512-.09473-.49512-.2832,0-.07813.05859-.20117.17676-.36523.11768-.16602.23584-.39453.35352-.68555.11816-.29004.17676-.65625.17676-1.0957,0-.73926-.2749-1.33789-.8252-1.79199-.55029-.45605-1.27344-.68457-2.16992-.68457-.97559,0-1.70313.2793-2.18262.83789-.479.55664-.71875,1.18262-.71875,1.875,0,.58203.15723,1.07617.47168,1.48633.31445.4082.72656.76563,1.23828,1.07324.51123.30664,1.07324.59277,1.68652.86035s1.22656.55469,1.84033.86133c.61279.30664,1.17529.66406,1.68652,1.07324.51025.40723.92383.90332,1.23877,1.48535.31348.58203.47119,1.28906.47119,2.12402,0,1.36621-.45947,2.47559-1.37988,3.3252-.91943.84961-2.26904,1.27344-4.04541,1.27344h0Zm11.07471-.3291l-.2832-.80273.54248-.1416c.59766-.15723.99902-.38086,1.20313-.67188.20459-.29102.30664-.79785.30664-1.52148V3.93945c0-.73926-.10205-1.25-.30664-1.5332-.2041-.2832-.60547-.50391-1.20313-.66016l-.54248-.1416.2832-.80176h5.16602l.30664.37695-.30664.4248c-.37744.53418-.64893,1.08496-.81396,1.65137-.16504.56445-.24756,1.32813-.24756,2.28809v9.22168c0,.69336.09814,1.16895.29443,1.42773.19678.25977.57813.47656,1.14453.64941l.49512.1416-.25928.75488h-5.7793Zm11.42871,0l-.2832-.80273.54248-.1416c.59766-.15723.99902-.38086,1.20313-.67188s.30664-.79785.30664-1.52148V3.93945c0-.73926-.10254-1.25-.30664-1.5332s-.60547-.50391-1.20313-.66016l-.54248-.1416.2832-.80176h3.79736l9.01123,13.37402V3.93945c0-.73926-.10303-1.25-.30664-1.5332-.20459-.2832-.60596-.50391-1.20361-.66016l-.54199-.1416.2832-.80176h4.48145l.30713.37695-.30713.4248c-.37695.53418-.64844,1.08496-.81348,1.65137-.16553.56445-.24805,1.32813-.24805,2.28809v10.11816c0,.29883.02734.54395.08252.73242s.1377.36914.24756.54199l.30664.4248-.30664.37793h-2.38184l-8.9873-13.3291v8.58789c0,.95898.08252,1.7207.24756,2.28711.16455.56641.43604,1.11719.81396,1.65137l.30664.4248-.30664.37793h-4.48193Zm28.90771.3291c-1.27441,0-2.38184-.22852-3.32617-.68359-.94336-.45703-1.72949-1.08496-2.3584-1.88672-.62939-.80273-1.09766-1.73438-1.40381-2.79688-.30664-1.05957-.45996-2.19727-.45996-3.40723,0-1.21094.15332-2.35059.45996-3.41992.30615-1.06934.77441-2.00879,1.40381-2.81934.62891-.80957,1.42285-1.44238,2.38184-1.89844.95947-.45605,2.08398-.68555,3.37354-.68555,1.0376,0,1.95801.14648,2.75928.4375.80273.29102,1.42773.69629,1.87598,1.21484.44775.51855.67188,1.12402.67188,1.81641,0,.81641-.24023,1.48242-.71973,1.99219-.47949.51172-1.08105.76758-1.80371.76758-.33105,0-.49609-.09473-.49609-.2832,0-.07813.05957-.20117.17676-.36523.11816-.16602.23633-.39453.35449-.68555.11816-.29004.17676-.65625.17676-1.0957,0-.73926-.27539-1.33789-.82568-1.79199-.55029-.45605-1.27393-.68457-2.16992-.68457-.92773,0-1.70654.21973-2.33545.66016s-1.13574,1.02637-1.52148,1.75781c-.38525.73145-.66406,1.54102-.83789,2.42969-.17188.88867-.25879,1.77148-.25879,2.65332,0,1.30566.2041,2.50098.61328,3.58594.4082,1.08496.99414,1.9502,1.75781,2.59473.7627.64453,1.67041.9668,2.72363.9668,1.03809,0,1.92676-.19336,2.66504-.57813.74023-.38477,1.32959-.90039,1.76953-1.54492.04688-.0625.10254-.09375.16602-.09375.1416,0,.30176.07031.48291.21094.18115.14258.27148.29102.27148.44922,0,.04688-.02344.10938-.0708.1875-.61328.91211-1.36816,1.64063-2.26465,2.18164-.89648.54297-1.97363.81445-3.23145.81445h0Zm21.85449.25977l-.18848-.25977c-.17285-.21973-.50342-.3291-.99121-.3291h-9.93018l-.25928-.75488.49512-.1416c.56543-.17285.94727-.38965,1.14453-.64941.19531-.25879.29443-.73438.29443-1.42773V5.54395c0-.95996-.08252-1.72363-.24756-2.28809-.16602-.56641-.43652-1.11719-.81396-1.65137l-.30664-.4248.30664-.37695h7.21777c1.35205,0,2.24902-.16602,2.68896-.49609l.4248-.30664.37744.30664v4.19922l-.80225.2832-.1416-.54297c-.1416-.56641-.30664-.99902-.49512-1.29688-.18848-.29883-.44043-.50781-.75488-.625-.31396-.11914-.75488-.17773-1.3208-.17773h-2.28809c-.61377,0-1.01807.11426-1.21484.3418-.19678.22852-.29492.71191-.29492,1.45117v4.5293h2.99658c.36133,0,.6875-.08008.97803-.23633.29102-.15723.58594-.44043.88525-.84961l.18799-.25977.47217.25977v4.0332l-.80176.2832-.14258-.54297c-.14063-.54883-.39648-.91211-.76611-1.08398-.36963-.17383-.97119-.25977-1.8042-.25977h-2.00537v4.78906c0,.72363.09814,1.20313.29492,1.4375.19678.2373.60107.35547,1.21484.35547h2.54736c.56641,0,1.00684-.06055,1.32129-.17773s.56543-.33008.75488-.63672c.18848-.30664.35449-.73438.49512-1.28516l.1416-.54297.80176.2832v4.0332l-.47168.25977h0Z" style="fill: #da996d; fill-rule: evenodd;"/>
      <path d="m3.69043,49.46777l-.45654-1.29395,1.63623-.41797c.65918-.17773,1.16016-.37402,1.50244-.58984.34277-.2168.5835-.5332.72314-.95117.13965-.41992.20898-1.02148.20898-1.80664v-18.33984l-4.6792,2.96875c-.5835-.12695-1.10352-.45703-1.56006-.98926s-.81201-1.06543-1.06543-1.59766l10.53906-4.90918c.35547.10254.65918.29297.9126.57129.25391.27832.45703.55762.60889.83691l-.98926.64746v18.22363c0,1.54688.12695,2.7832.38037,3.70996.25391.9248.69775,1.80664,1.33203,2.64355l.49463.68555-.49463.6084H3.69043Zm23.32227.53223c-1.47168,0-2.77734-.22754-3.91846-.68555-1.14209-.45508-2.03564-1.08301-2.68262-1.88184-.646-.7998-.97021-1.71875-.97021-2.75879s.36182-1.87695,1.08398-2.51172c.72314-.63281,1.62988-.95117,2.7207-.95117.55762,0,.83691.15332.83691.45703,0,.17773-.1582.48828-.47559.93262-.31738.44336-.47559,1.05859-.47559,1.84473,0,1.04004.36182,1.86426,1.08398,2.47363.72314.6084,1.64355.91309,2.75879.91309,1.29346,0,2.37158-.32422,3.23389-.9707.86182-.64648,1.54736-1.50391,2.05469-2.56738.50732-1.06543.875-2.26465,1.10303-3.5957.22852-1.33203.3418-2.68262.3418-4.05176v-1.04688c0-.3418-.01172-.67969-.03711-1.00781-.63428,1.29297-1.5791,2.3457-2.83496,3.15723-1.25488.81152-2.7832,1.21777-4.58398,1.21777-1.62305,0-2.9873-.38086-4.09033-1.14063-1.10303-.76172-1.93359-1.75195-2.4917-2.96875s-.8374-2.49805-.8374-3.8418c0-1.1416.18994-2.27051.57129-3.38672.38037-1.11523.95654-2.125,1.72998-3.02441.77441-.90137,1.74414-1.62305,2.91113-2.16895,1.16699-.54492,2.52393-.81836,4.0708-.81836,1.7251,0,3.19629.39258,4.41357,1.18066,1.21777.78613,2.21338,1.86426,2.98682,3.2334s1.33789,2.95508,1.69287,4.75586c.35449,1.80078.5332,3.71484.5332,5.74512,0,2.51074-.38672,4.78125-1.16113,6.80957-.77344,2.0293-1.95264,3.64648-3.53809,4.85156-1.58594,1.2041-3.59521,1.80664-6.03027,1.80664h0Zm.98926-13.77246c1.1665,0,2.12988-.29199,2.89111-.87598.76123-.58203,1.33203-1.33789,1.7124-2.2627.38037-.92676.5708-1.88281.5708-2.87207,0-1.01563-.17773-1.99219-.53271-2.92969-.35547-.93945-.88184-1.70605-1.5791-2.30273-.69824-.5957-1.57861-.89355-2.64404-.89355-1.11621,0-2.04834.29785-2.79639.89355-.74805.59668-1.30615,1.35742-1.67383,2.2832-.36816.92578-.55176,1.89648-.55176,2.91113s.1709,1.9834.5127,2.91016c.34326.9248.85645,1.68066,1.5415,2.2627.68506.58398,1.53467.87598,2.54932.87598h0Zm23.47461,13.77246c-1.49658,0-2.91699-.22754-4.26123-.68555-1.34521-.45508-2.44141-1.14063-3.29102-2.05371s-1.2749-2.05371-1.2749-3.4248c0-1.19141.38672-2.16211,1.16016-2.91016s1.74414-1.12305,2.91113-1.12305c.2793,0,.48193.01953.6084.05859.12695.03711.19043.16992.19043.39941,0,.10059-.09521.28418-.28516.55176-.19043.26563-.38037.61523-.57129,1.04492-.18994.43164-.28516.99023-.28516,1.67383,0,.86328.24121,1.59863.72266,2.20801.48242.6084,1.10352,1.07129,1.86426,1.38867s1.56055.47559,2.39746.47559c.91309,0,1.79443-.19141,2.64355-.57129.8501-.37988,1.54785-.96973,2.09277-1.76855.5459-.79883.81836-1.80859.81836-3.02539,0-.50684-.07617-1.08984-.22852-1.74902-.15234-.66113-.4502-1.29395-.89404-1.90332s-1.09717-1.10938-1.95898-1.50195c-.86279-.39355-2.00391-.58984-3.42432-.58984-.91309,0-1.61719.06348-2.1123.18945-.49414.12793-.81738.18945-.96973.18945-.35547,0-.5332-.22656-.5332-.68359,0-.30469.10205-.54492.30469-.72266.20313-.17773.79883-.35547,1.78857-.5332,1.62256-.30371,2.9165-.7168,3.88037-1.23633s1.68701-1.08398,2.16895-1.69238c.48193-.60938.79883-1.22559.95117-1.8457.15186-.62207.22852-1.19824.22852-1.73145,0-1.06445-.23438-1.94629-.7041-2.64453-.46875-.69727-1.07178-1.2168-1.80762-1.55859-.73535-.34375-1.49609-.51367-2.28223-.51367-1.09082,0-2.06738.3291-2.92969.98926-.8623.65918-1.29395,1.64746-1.29395,2.9668,0,.66016.0957,1.21191.28613,1.65527.18994.44336.37988.79297.57031,1.0459.18945.25391.28613.44434.28613.57129,0,.30469-.26709.45605-.7998.45605-1.1665,0-2.13672-.37402-2.91064-1.12207-.77344-.74805-1.16016-1.71875-1.16016-2.91016,0-1.29492.38672-2.36523,1.16016-3.21484.77393-.84961,1.76953-1.48438,2.98682-1.90234,1.21777-.41992,2.51074-.62891,3.88086-.62891,1.44531,0,2.84717.24219,4.2041.72266,1.35742.4834,2.47266,1.21191,3.34766,2.18848.875.97559,1.31348,2.2002,1.31348,3.6709,0,1.7002-.50195,3.12109-1.50391,4.26172-1.00146,1.1416-2.37793,2.04102-4.12793,2.70117,2.15625.48242,3.7666,1.38867,4.83203,2.7207s1.59814,2.85938,1.59814,4.58398c0,2.43555-.875,4.29883-2.62549,5.59277-1.75,1.29395-4.07129,1.94043-6.96191,1.94043h0Zm24.42529,0c-1.74951,0-3.28467-.3418-4.604-1.02637-1.31836-.68652-2.41553-1.63672-3.29102-2.85449-.87402-1.2168-1.53418-2.60547-1.97852-4.16602-.44336-1.55957-.66504-3.21484-.66504-4.96484,0-2.10547.24072-4.08398.72266-5.93555.48145-1.85156,1.20459-3.48047,2.16797-4.88867.96484-1.4082,2.16895-2.51758,3.61523-3.32813,1.44531-.81152,3.14502-1.21875,5.09814-1.21875,1.47119,0,2.77002.22266,3.8999.66699,1.12842.44336,2.0166,1.0459,2.66309,1.80664s.96973,1.64746.96973,2.66406c0,1.31836-.38672,2.38965-1.16016,3.21387-.77344.8252-1.74365,1.2373-2.91113,1.2373-.53223,0-.79834-.15332-.79834-.45801,0-.12598.09521-.32227.28467-.58887.19141-.26563.38086-.6084.57129-1.02832.18945-.41797.28516-.91797.28516-1.50195,0-1.19141-.35498-2.13086-1.06445-2.81543-.71094-.68457-1.66211-1.02637-2.854-1.02637-1.39502,0-2.56787.4043-3.51953,1.2168-.95068.81152-1.70557,1.87695-2.26318,3.19531-.55811,1.32031-.96484,2.75293-1.21777,4.2998-.25342,1.54688-.38086,3.06934-.38086,4.56543v.91211c0,.30469.0127.59766.03809.87598.48242-1.54688,1.37012-2.82129,2.66357-3.82324s2.99268-1.50293,5.09814-1.50293c1.75,0,3.19531.34277,4.33691,1.02637,1.1416.68555,1.99121,1.60547,2.54883,2.75977.55859,1.15234.8374,2.43945.8374,3.86133,0,1.59766-.33594,3.06934-1.0083,4.41211-.67188,1.34375-1.68066,2.41602-3.02441,3.21484-1.34424.79883-3.03125,1.19922-5.06006,1.19922h0Zm-.53271-2.39648c1.64844,0,2.89795-.55859,3.74707-1.67383.8501-1.11719,1.2749-2.51172,1.2749-4.18555,0-1.54688-.35498-2.87207-1.06494-3.97559-.71094-1.10449-1.85156-1.65527-3.42432-1.65527-1.09033,0-2.00391.2793-2.73926.83691-.73584.55762-1.2876,1.28809-1.65527,2.1875-.36768.90137-.55127,1.87109-.55127,2.91113,0,1.54688.3418,2.85938,1.02637,3.9375.68555,1.07813,1.81348,1.61719,3.38672,1.61719h0Z" style="fill: #da996d; fill-rule: evenodd;"/>
    </g>
  </g>
</svg>